<?xml version="1.0" encoding="utf-8"?>
<!-- Generator: Adobe Illustrator 21.0.0, SVG Export Plug-In . SVG Version: 6.00 Build 0)  -->
<svg version="1.1" id="Layer_1" xmlns="http://www.w3.org/2000/svg" xmlns:xlink="http://www.w3.org/1999/xlink" x="0px" y="0px"
	 viewBox="0 0 69 47" style="enable-background:new 0 0 69 47;" xml:space="preserve">
<style type="text/css">
	.st0{opacity:0.5;fill:#FFFFFF;}
	.st1{fill:#FFFFFF;}
</style>
<g>
	<path class="st0" d="M11.3,47l-6.8-3.9C0.2,40.6-1.3,35,1.2,30.6L18.3,1l6.8,3.9c4.4,2.5,5.9,8.1,3.4,12.5L11.3,47z"/>
	<path class="st0" d="M31,47l-6.8-3.9c-4.4-2.5-5.9-8.1-3.4-12.5L38,1l6.8,3.9c4.4,2.5,5.9,8.1,3.4,12.5L31,47z"/>
	<path class="st0" d="M50.7,47l-6.8-3.9c-4.4-2.5-5.9-8.1-3.4-12.5L57.7,1l6.8,3.9c4.4,2.5,5.9,8.1,3.4,12.5L50.7,47z"/>
	<path class="st1" d="M50.7,47l-7.3-4.2c-2.5-1.4-4-4-4.2-6.6C39,34.5,38,1,38,1l7.3,4.2c2.5,1.4,3.9,3.9,4.2,6.5
		C49.7,13.4,50.7,47,50.7,47z"/>
	<path class="st1" d="M31.2,47l-7.3-4.2c-2.5-1.4-4-4-4.2-6.6C19.5,34.5,18.5,1,18.5,1l7.3,4.2c2.5,1.4,3.9,3.9,4.2,6.5
		C30.2,13.4,31.2,47,31.2,47z"/>
</g>
</svg>
