<?xml version="1.0" encoding="utf-8"?>
<!-- Generator: Adobe Illustrator 21.0.0, SVG Export Plug-In . SVG Version: 6.00 Build 0)  -->
<svg version="1.1" id="Layer_1" xmlns="http://www.w3.org/2000/svg" xmlns:xlink="http://www.w3.org/1999/xlink" x="0px" y="0px"
	 viewBox="0 0 300 56" style="enable-background:new 0 0 300 56;" xml:space="preserve">
<style type="text/css">
	.st0{fill:#FFFFFF;}
	.st1{opacity:0.5;fill:#FFFFFF;}
</style>
<g>
	<g>
		<g>
			<path class="st0" d="M125.1,40.3v-10c0-1.8,0-3.8-0.8-5.2c-0.6-0.9-1.6-1.5-3-1.5c-1.7,0-3.6,1.2-4.8,3c0.1,1,0.2,2.2,0.2,3.3
				v10.3h-3.8v-10c0-1.8,0-4-0.9-5.3c-0.5-0.9-1.4-1.4-2.7-1.4c-1.8,0-3.7,1.6-4.8,3.2v13.5h-3.8V20.4h3.6l0.1,2.9
				c1.4-2.1,3.7-3.3,5.8-3.3c2.1,0,4,0.9,5.1,2.7c0.2,0.3,0.3,0.6,0.4,0.9c1.6-2.5,4-3.6,6.4-3.6s4,0.9,5.1,2.4
				c1.4,1.9,1.7,4.6,1.7,7.6v10.3H125.1z"/>
			<path class="st0" d="M144.5,23.3c-2.9,0-4.7,2.2-5.3,5h10C149,25.5,147.1,23.3,144.5,23.3 M144.6,37.3c2.5,0,4.3-1,5.4-3.1
				l2.7,1.8c-1.9,3.2-4.4,4.7-8.3,4.7c-5.9,0-9.3-4.5-9.3-10.4c0-5.9,4.1-10.5,9.3-10.5c5,0,8.7,3.9,8.7,9.2c0,0.7-0.1,1.6-0.2,2.2
				h-14C139.2,34.6,141.2,37.3,144.6,37.3"/>
			<path class="st0" d="M167.8,23.6c-4.1,0-6,3.5-6,6.8c0,3.5,2.3,6.7,5.9,6.7c1.9,0,4.3-1.2,5.3-3.5v-7.1
				C171.7,24.5,169.6,23.6,167.8,23.6 M176.8,40.3h-3.6l-0.1-2.6c-1.3,2.1-3.8,3.1-6,3.1c-5.3,0-9.2-4.6-9.2-10.5
				c0-5.3,3.7-10.4,9.3-10.4c2.1,0,4.3,0.9,5.8,2.6V10.8h3.8V40.3z"/>
		</g>
		<path class="st0" d="M184.6,20.4h3.8v19.9h-3.8V20.4z M184.6,12.6h3.8v4.2h-3.8V12.6z"/>
		<g>
			<path class="st0" d="M207.1,31.3c-1.3-0.3-2.3-0.4-3.2-0.4c-2.2,0-5,0.6-5,3.5c0,2.2,1.6,3.1,3.5,3.1c1.8,0,3.3-0.9,4.7-2.2V31.3
				z M207.4,40.3l-0.1-2c-1.4,1.8-3.2,2.5-5.5,2.5c-3.5,0-6.7-1.9-6.7-6.1c0-5,4.2-6.6,8.3-6.6c1,0,2.1,0.1,3.7,0.4v-0.6
				c0-2.9-1.3-4.6-4.3-4.6c-2.1,0-4.3,0.9-5.9,1.8l-1.1-3.3c2-1,4.9-1.9,7.6-1.9c5.4,0,7.5,3.1,7.5,8.3v12.1H207.4z"/>
			<path class="st0" d="M221.4,21.1v3.4c1.4-2.6,3.7-3.9,6-3.9c3,0,4.8,1.5,5.7,4c2.3-3.1,4.1-4,6.4-4c4.8,0,6.8,3.3,6.8,9.3v10.4
				h-2.5v-10c0-3.7-0.8-7.3-4.4-7.3c-2.1,0-4.3,1.5-5.7,4c0.1,0.9,0.1,1.8,0.1,2.8v10.5h-2.5v-10c0-3.6-0.6-7.3-4.3-7.3
				c-2.3,0-4.5,2-5.7,4.5v12.7h-2.5V21.1H221.4z"/>
		</g>
		<path class="st0" d="M254.6,21.1h2.5v19.2h-2.5V21.1z M254.6,13.1h2.5v3.7h-2.5V13.1z"/>
		<g>
			<path class="st0" d="M268.2,21.1v3.4c1.4-2.6,3.7-3.9,6.4-3.9c5.1,0,6.8,3.5,6.8,9.3v10.4H279v-10c0-3.6-0.6-7.3-4.7-7.3
				c-2.7,0-4.9,2-6.1,4.5v12.7h-2.5V21.1H268.2z"/>
			<path class="st0" d="M292.7,23.5v10.6c0,3.5,1.1,4.1,2.8,4.1c0.7,0,1.4-0.2,2.2-0.5l0.6,2.1c-0.8,0.5-1.8,0.8-2.9,0.8
				c-3.5,0-5.3-2.2-5.3-6.2V23.5h-2.6v-2.4h2.6v-4.8h2.5v4.8h5.3v2.4H292.7z"/>
		</g>
	</g>
	<g>
		<g>
			<path class="st1" d="M34.9,52.4l8.4-14.5C43,28.7,42.2,3.3,42.2,3.3l-8.4,14.5C34.2,26.2,34.8,49.3,34.9,52.4z"/>
		</g>
		<path class="st1" d="M70.6,7.5l-7.2-4.2l-8.6,14.9c0.3,9.3,1.1,34.6,1.1,34.6l18.4-31.8C76.9,16.2,75.3,10.2,70.6,7.5z"/>
		<path class="st1" d="M21.3,3.3L21.3,3.3L3,35.1c-2.7,4.7-1.1,10.7,3.6,13.4l7.2,4.2l8.6-14.9C22.1,28.7,21.3,3.4,21.3,3.3z"/>
		<path class="st0" d="M55.8,52.7L48,48.2c-2.7-1.5-4.3-4.3-4.5-7.1c-0.2-1.8-1.2-37.7-1.2-37.7l7.9,4.5c2.6,1.5,4.2,4.2,4.5,7
			C54.8,16.7,55.8,52.7,55.8,52.7z"/>
		<path class="st0" d="M34.9,52.7l-7.9-4.5c-2.7-1.5-4.3-4.3-4.5-7.1c-0.2-1.8-1.2-37.7-1.2-37.7l7.9,4.5c2.6,1.5,4.2,4.2,4.5,7
			C33.9,16.7,34.9,52.7,34.9,52.7z"/>
	</g>
</g>
</svg>
